<svg width="28" height="28" viewBox="0 0 28 28" fill="none" xmlns="http://www.w3.org/2000/svg">
<path fill-rule="evenodd" clip-rule="evenodd" d="M4.66688 0.0020752H23.333C25.9093 0.0020752 27.9993 2.09001 27.9993 4.66828V23.3338C27.9993 25.91 25.9093 27.9993 23.333 27.9993H4.66688C2.08928 27.9993 0 25.91 0 23.3338V4.66828C0 2.09001 2.08928 0.0020752 4.66688 0.0020752Z" fill="#222222"/>
<path fill-rule="evenodd" clip-rule="evenodd" d="M4.36532 28.0004L4.14293 22.7192L2.49107 21.0412L1.90762 11.8562L6.26771 5.01831C6.26771 5.01831 7.20684 20.1898 7.20684 21.687C7.20684 22.6007 7.16732 25.7115 7.13517 28.0004H4.36532Z" fill="#7E8825"/>
<path fill-rule="evenodd" clip-rule="evenodd" d="M11.9721 28.0003L11.4972 19.3927C11.4637 18.7396 11.4711 17.3543 10.9573 16.6316C10.4415 15.9095 8.60877 14.7915 8.60877 14.7915L8.17002 6.27963C8.15193 5.90987 10.6826 11.3069 10.6826 11.3069L11.6841 5.43762L12.5937 9.32747L14.0748 5.77657L14.9134 10.6149L16.0783 5.58164C16.0783 5.58164 17.5359 12.9186 16.3275 15.0353C15.2638 16.9002 14.468 16.5807 14.468 16.5807C14.468 16.5807 15.231 20.6005 15.4775 22.2342C15.4721 23.1097 15.1794 25.9439 14.953 28.0003H11.9721Z" fill="#F14F12"/>
<path fill-rule="evenodd" clip-rule="evenodd" d="M19.8209 28.0003C19.7197 26.7898 19.6387 25.3865 19.6682 24.2584C19.7372 21.723 19.8128 17.5934 19.8128 17.5934C19.8128 17.5934 17.9513 15.5235 17.8555 14.0217C17.7577 12.5199 19.7713 5.88165 19.7713 5.88165C19.7713 5.88165 23.9244 4.99945 24.8602 6.13218C24.4335 7.69227 28.2329 11.3798 25.9641 15.6046C25.5743 16.33 23.7409 17.6209 23.4173 18.006C23.0938 18.3919 22.6329 21.2153 22.8037 22.0526C22.9062 22.5577 22.8366 25.6397 22.7662 28.0003H19.8209Z" fill="#FF9208"/>
</svg>
