<svg width="40" height="40" viewBox="0 0 40 40" fill="none" xmlns="http://www.w3.org/2000/svg">
<path fill-rule="evenodd" clip-rule="evenodd" d="M20 10.001C17.7909 10.001 16 11.7918 16 14.001C16 14.5533 16.4477 15.001 17 15.001C17.5523 15.001 18 14.5533 18 14.001C18 12.8964 18.8954 12.001 20 12.001C21.1046 12.001 22 12.8964 22 14.001C22 14.5533 22.4477 15.001 23 15.001C23.5523 15.001 24 14.5533 24 14.001C24 11.7918 22.2091 10.001 20 10.001Z" fill="white"/>
<path d="M12 16.801C12 16.521 12 16.3809 12.0545 16.274C12.1024 16.1799 12.1789 16.1034 12.273 16.0555C12.38 16.001 12.52 16.001 12.8 16.001H27.2C27.48 16.001 27.62 16.001 27.727 16.0555C27.8211 16.1034 27.8976 16.1799 27.9455 16.274C28 16.3809 28 16.521 28 16.801V24.3686C28 24.4011 28 24.4174 28.0011 24.4336C28.002 24.448 28.0036 24.4624 28.0057 24.4767C28.0082 24.4927 28.0117 24.5086 28.0187 24.5405L28.7862 28.0291C28.8593 28.3615 28.8959 28.5277 28.8527 28.6581C28.8149 28.7724 28.737 28.8693 28.6335 28.9308C28.5154 29.001 28.3452 29.001 28.0049 29.001H11.9951C11.6548 29.001 11.4846 29.001 11.3665 28.9308C11.263 28.8693 11.1851 28.7724 11.1473 28.6581C11.1041 28.5277 11.1407 28.3615 11.2138 28.0291L11.9813 24.5405C11.9883 24.5086 11.9918 24.4927 11.9943 24.4767C11.9964 24.4624 11.998 24.448 11.9989 24.4336C12 24.4174 12 24.4011 12 24.3686V16.801Z" fill="white"/>
</svg>
