<svg width="164" height="64" xmlns="http://www.w3.org/2000/svg" xmlns:svg="http://www.w3.org/2000/svg" xmlns:xlink="http://www.w3.org/1999/xlink">
 <g class="layer">
  <title>Layer 1</title>
  <circle cx="16" cy="16" r="10" fill="#969AA3" id="svg_1"/>
  <path fill-rule="evenodd" clip-rule="evenodd" d="m19.5,19l0.9535,-3l-2.891,0l0,-1.8259c0,-0.7958 0.3875,-1.5715 1.6299,-1.5715l1.2611,0l0,-2.4764c0,0 -1.1445,-0.19651 -2.2387,-0.19651c-2.2845,0 -3.7776,1.39301 -3.7776,3.91501l-0.0617,2.1553l-2.3755,0l0,3l2.4372,0l0,6.8778c0.5091,0.0803 1.031,0.1222 1.5626,0.1222c0.5317,0 1.0536,-0.0419 1.5627,-0.1222l-0.0625,-6.8778l2,0z" fill="white" id="svg_2"/>
  <path d="m50,15.5833c0,-4.5176 0,-6.77641 1.4034,-8.17985c1.4035,-1.40345 3.6623,-1.40345 8.1799,-1.40345l0.8334,0c4.5176,0 6.7764,0 8.1798,1.40345c1.4035,1.40344 1.4035,3.66225 1.4035,8.17985l0,0.8334c0,4.5176 0,6.7764 -1.4035,8.1798c-1.4034,1.4035 -3.66219,1.4035 -8.1798,1.4035l-0.8334,0c-4.5176,0 -6.7764,0 -8.1799,-1.4035c-1.4034,-1.4034 -1.4034,-3.6622 -1.4034,-8.1798l0,-0.8334z" fill="#969AA3" id="svg_3"/>
  <path fill-rule="evenodd" clip-rule="evenodd" d="m55.4174,12.0001l-1.4587,0c-0.4167,0 -0.5001,0.1962 -0.5001,0.4124c0,0.3863 0.7333,2.5537 2.5414,5.0875c1.2053,1.7304 2.4127,2.5001 3.958,2.5001c0.9272,0 1.042,-0.2083 1.042,-0.5672l0,-1.1411c0,-0.4167 0.0878,-0.4999 0.3814,-0.4999c0.2163,0 0.8394,0.1082 1.7048,0.9425c0.989,0.9888 0.8988,1.2657 1.4551,1.2657l1.4587,0c0.4167,0 0.6251,-0.2083 0.5049,-0.6194c-0.1315,-0.4098 -0.6037,-0.8377 -1.2303,-1.5424c-0.34,-0.4017 -0.85,-0.8343 -1.00449,-1.0506c-0.2164,-0.2781 -0.1546,-0.4017 0,-0.6489c0,0 1.7771,-2.7529 1.96259,-3.6026c0.0927,-0.309 0,-0.5361 -0.44109,-0.5361l-1.20541,0c-0.3709,0 -0.5419,0.1962 -0.6346,0.4124c0,0 -0.7418,1.8824 -1.7926,3.0566c-0.5921,0.3399 -0.7467,0.448 -0.9321,0.448c-0.0927,0 -0.2269,-0.1081 -0.2269,-0.4171l0,-2.9638c0,-0.3708 -0.1077,-0.5361 -0.4168,-0.5361l-2.0832,-0.0001c-0.2318,0 -0.3712,0.1721 -0.3712,0.3352c0,0.3515 0.817,0.6827 0.8712,1.6715l0,2.1476c0,0.4708 -0.3146,0.8457 -0.5,0.8457c-0.4945,0 -1.7163,-2.3553 -2.4298,-4.4329c-0.1397,-0.4039 -0.28,-0.567 -0.6528,-0.567z" fill="white" id="svg_4"/>
  <path fill-rule="evenodd" clip-rule="evenodd" d="m107.871,6.75162c1.207,0.50014 2.30199,1.2347 3.223,2.16113c0.925,0.92127 1.658,2.01685 2.157,3.22325c0.498,1.2065 0.753,2.4998 0.749,3.8054c-0.002,5.4779 -4.46,9.935 -9.935,9.935l-0.00401,0c-1.659,-0.0001 -3.291,-0.4158 -4.7476,-1.2091l-5.2669,1.3815l1.3877,-5.0682l0,-0.1183c-0.8567,-1.5009 -1.3065,-3.1999 -1.3043,-4.9286c0.0024,-5.4779 4.457,-9.93452 9.9351,-9.93452c1.306,-0.00344 2.60001,0.25231 3.806,0.75244l0.00002,0l-0.00001,0z" fill="#969AA3" id="svg_5"/>
  <path fill-rule="evenodd" clip-rule="evenodd" d="m108.594,18.014c-0.248,-0.1243 -1.469,-0.7246 -1.696,-0.8098c-0.228,-0.0853 -0.39301,-0.1244 -0.55901,0.1243c-0.16499,0.2487 -0.641,0.8099 -0.786,0.9733c-0.144,0.1634 -0.289,0.1862 -0.538,0.0619c-0.248,-0.1244 -1.048,-0.3864 -1.996,-1.232c-0.738,-0.6583 -1.236,-1.471 -1.382,-1.7197c-0.145,-0.2487 -0.01501,-0.3811 0.10899,-0.5064c0.112,-0.1115 0.248,-0.2901 0.373,-0.4349c0.12399,-0.1449 0.16499,-0.2487 0.24799,-0.414c0.083,-0.1653 0.041,-0.3106 -0.021,-0.435c-0.062,-0.1243 -0.558,-1.3443 -0.763,-1.8417c-0.202,-0.484 -0.407,-0.4182 -0.559,-0.4263c-0.14301,-0.0072 -0.31001,-0.0086 -0.47601,-0.0086c-0.12601,0.0033 -0.25,0.0325 -0.36401,0.086c-0.11401,0.0534 -0.21529,0.1299 -0.29819,0.2246c-0.22771,0.2487 -0.869,0.8494 -0.869,2.0708c0,1.2215 0.8895,2.4025 1.01421,2.5682c0.124,0.1658 1.75,2.673 4.23901,3.7487c0.46301,0.1996 0.93501,0.3745 1.41599,0.524c0.594,0.1906 1.13499,0.1625 1.563,0.0987c0.47701,-0.0715 1.469,-0.6008 1.676,-1.1805c0.20599,-0.5798 0.20599,-1.0771 0.143,-1.1805c-0.064,-0.1034 -0.226,-0.1667 -0.474,-0.2911l0.00002,0l0.00002,0l-0.00001,0z" fill="white" id="svg_6"/>
  <path d="m148,8c2.67,0 2.987,0.01 4.04201,0.05833c2.70999,0.12334 3.77699,1.21167 3.90099,3.90167c0.048,1.0542 0.05702,1.3708 0.05702,4.0408c0,2.6709 -0.00998,2.9867 -0.05702,4.0409c-0.125,2.6875 -1.189,3.7766 -3.90099,3.9c-1.05501,0.0483 -1.37001,0.0583 -4.04201,0.0583c-2.67,0 -2.987,-0.01 -4.041,-0.0583c-2.717,-0.1242 -3.77699,-1.2167 -3.901,-3.9009c-0.048,-1.0541 -0.058,-1.37 -0.058,-4.0408c0,-2.67 0.011,-2.9858 0.058,-4.0408c0.125,-2.6892 1.189,-3.77837 3.901,-3.9017c1.05501,-0.0475 1.371,-0.0575 4.041,-0.0575zm0,-2c-2.716,0 -3.056,0.01167 -4.12199,0.06c-3.63199,0.16667 -5.65001,2.18167 -5.817,5.8167c-0.04901,1.0675 -0.06099,1.4075 -0.06099,4.1233c0,2.7158 0.01198,3.0567 0.06,4.1233c0.16702,3.6317 2.18202,5.65 5.817,5.8167c1.067,0.0483 1.40701,0.06 4.123,0.06c2.71599,0 3.05702,-0.0117 4.123,-0.06c3.629,-0.1667 5.65198,-2.1817 5.81598,-5.8167c0.04901,-1.0666 0.061,-1.4075 0.061,-4.1233c0,-2.7158 -0.01199,-3.0558 -0.06,-4.1225c-0.16301,-3.62833 -2.181,-5.65 -5.81601,-5.81667c-1.06699,-0.04916 -1.40799,-0.06083 -4.12399,-0.06083zm0,4.865c-2.836,0 -5.13499,2.2992 -5.13499,5.135c0,2.8358 2.29901,5.1358 5.13499,5.1358c2.836,0 5.13499,-2.2991 5.13499,-5.1358c0,-2.8358 -2.29901,-5.135 -5.13499,-5.135zm0,8.4683c-1.841,0 -3.33299,-1.4916 -3.33299,-3.3333c0,-1.8408 1.49199,-3.3333 3.33299,-3.3333c1.841,0 3.33299,1.4925 3.33299,3.3333c0,1.8417 -1.49199,3.3333 -3.33299,3.3333zm5.338,-9.8708c-0.66299,0 -1.201,0.5375 -1.201,1.2c0,0.6625 0.53801,1.2 1.201,1.2c0.66301,0 1.19901,-0.5375 1.19901,-1.2c0,-0.6625 -0.536,-1.2 -1.19901,-1.2z" fill="#969AA3" id="svg_7"/>
  <use id="svg_11" xlink:href="#svg_10" transform="matrix(0.999713 0 0 1.00068 0.040103 -15.9298)" y="31.90411" x="0"/>
  <g id="svg_12"/>
 </g>
 <defs>
  <symbol viewBox="0 0 164 32" id="svg_10" xmlns="http://www.w3.org/2000/svg">
   <circle id="svg_13" cx="16" cy="16" r="10" fill="#1877F2"/>
   <path id="svg_14" fill-rule="evenodd" clip-rule="evenodd" d="m19.5,19l0.9535,-3l-2.891,0l0,-1.8259c0,-0.7958 0.3875,-1.5715 1.6299,-1.5715l1.2611,0l0,-2.4764c0,0 -1.1445,-0.19651 -2.2387,-0.19651c-2.2845,0 -3.7776,1.39301 -3.7776,3.91501l-0.0617,2.1553l-2.3755,0l0,3l2.4372,0l0,6.8778c0.5091,0.0803 1.031,0.1222 1.5626,0.1222c0.5317,0 1.0536,-0.0419 1.5627,-0.1222l-0.0625,-6.8778l2,0z" fill="white"/>
   <path id="svg_15" d="m50,15.5833c0,-4.5176 0,-6.77641 1.4034,-8.17985c1.4035,-1.40345 3.6623,-1.40345 8.1799,-1.40345l0.8334,0c4.5176,0 6.7764,0 8.1798,1.40345c1.4035,1.40344 1.4035,3.66225 1.4035,8.17985l0,0.8334c0,4.5176 0,6.7764 -1.4035,8.1798c-1.4034,1.4035 -3.66219,1.4035 -8.1798,1.4035l-0.8334,0c-4.5176,0 -6.7764,0 -8.1799,-1.4035c-1.4034,-1.4034 -1.4034,-3.6622 -1.4034,-8.1798l0,-0.8334z" fill="#2787F5"/>
   <path id="svg_16" fill-rule="evenodd" clip-rule="evenodd" d="m55.4178,12l-1.4587,0c-0.4168,0 -0.5001,0.1962 -0.5001,0.4124c0,0.3863 0.7333,2.5537 2.5413,5.0875c1.2054,1.7304 2.4127,2.5001 3.9581,2.5001c0.9272,0 1.0419,-0.2083 1.0419,-0.5672l0,-1.1411c0,-0.4167 0.0879,-0.4999 0.3814,-0.4999c0.2164,0 0.8394,0.1082 1.7049,0.9425c0.989,0.9888 0.8988,1.2657 1.4551,1.2657l1.4586,0c0.4168,0 0.62521,-0.2083 0.505,-0.6195c-0.1316,-0.4097 -0.60381,-0.8376 -1.2304,-1.5423c-0.34,-0.4017 -0.8499,-0.8343 -1.0045,-1.0506c-0.2163,-0.2781 -0.1545,-0.4017 0,-0.6489c0,0 1.7772,-2.7529 1.9627,-3.6026c0.0927,-0.3091 0,-0.5361 -0.4412,-0.5361l-1.2053,0c-0.3709,0 -0.5419,0.1962 -0.6347,0.4124c0,0 -0.7417,1.8824 -1.7926,3.0566c-0.5921,0.3398 -0.7466,0.448 -0.9321,0.448c-0.0927,0 -0.2269,-0.1082 -0.2269,-0.4171l0,-2.9638c0,-0.3709 -0.1076,-0.5361 -0.4167,-0.5361l-2.0833,-0.0001c-0.2317,0 -0.3711,0.1721 -0.3711,0.3352c0,0.3515 0.817,0.6827 0.8711,1.6715l0,2.1476c0,0.4708 -0.3146,0.8457 -0.5,0.8457c-0.4945,0 -1.7163,-2.3553 -2.4297,-4.433c-0.1398,-0.4038 -0.28,-0.5669 -0.6528,-0.5669z" fill="white"/>
   <path id="svg_17" fill-rule="evenodd" clip-rule="evenodd" d="m111.094,8.91275c-0.92101,-0.92643 -2.016,-1.66099 -3.222,-2.16113c-1.207,-0.50013 -2.5,-0.75588 -3.806,-0.75244c-5.4787,0 -9.9334,4.45662 -9.9358,9.93452c-0.00211,1.7287 0.4477,3.4277 1.3044,4.9286l0,0.1183l-1.3877,5.0682l5.2669,-1.3815c1.4562,0.7933 3.0882,1.209 4.7472,1.2091l0.00401,0c5.476,0 9.933,-4.4571 9.935,-9.935c0.00401,-1.3056 -0.25,-2.5989 -0.749,-3.8054c-0.499,-1.2064 -1.23199,-2.30198 -2.157,-3.22325l-0.00001,0z" fill="#25D366"/>
   <path id="svg_18" fill-rule="evenodd" clip-rule="evenodd" d="m108.595,18.014c-0.248,-0.1243 -1.469,-0.7246 -1.697,-0.8098c-0.22701,-0.0853 -0.39301,-0.1244 -0.55801,0.1243c-0.16499,0.2487 -0.641,0.8099 -0.786,0.9733c-0.145,0.1634 -0.29,0.1862 -0.538,0.0619c-0.248,-0.1244 -1.048,-0.3864 -1.996,-1.232c-0.738,-0.6583 -1.237,-1.471 -1.382,-1.7197c-0.145,-0.2487 -0.015,-0.3811 0.10899,-0.5064c0.111,-0.1115 0.248,-0.2901 0.372,-0.4349c0.125,-0.1449 0.166,-0.2487 0.24899,-0.414c0.08199,-0.1653 0.041,-0.3106 -0.021,-0.435c-0.062,-0.1243 -0.558,-1.3443 -0.764,-1.8417c-0.201,-0.484 -0.406,-0.4182 -0.558,-0.4263c-0.143,-0.0072 -0.31001,-0.0086 -0.476,-0.0086c-0.12601,0.0033 -0.25,0.0325 -0.36401,0.086c-0.114,0.0534 -0.2155,0.1299 -0.2985,0.2246c-0.2277,0.2487 -0.8689,0.8494 -0.8689,2.0708c0,1.2215 0.8894,2.4025 1.0134,2.5682c0.125,0.1658 1.751,2.673 4.24001,3.7487c0.462,0.1996 0.935,0.3745 1.41599,0.524c0.59399,0.1906 1.13499,0.1625 1.563,0.0987c0.476,-0.0715 1.469,-0.6008 1.675,-1.1805c0.207,-0.5798 0.207,-1.0771 0.14301,-1.1805c-0.063,-0.1034 -0.22501,-0.1667 -0.473,-0.2911l0.00003,0l0.00001,0l-0.00001,0z" fill="white"/>
   <path id="svg_19" d="m148,8c2.67,0 2.987,0.01 4.04201,0.05833c2.70999,0.12334 3.77699,1.21167 3.90099,3.90167c0.048,1.0542 0.05702,1.3708 0.05702,4.0408c0,2.6709 -0.00998,2.9867 -0.05702,4.0409c-0.125,2.6875 -1.189,3.7766 -3.90099,3.9c-1.05501,0.0483 -1.37001,0.0583 -4.04201,0.0583c-2.67,0 -2.987,-0.01 -4.041,-0.0583c-2.717,-0.1242 -3.77699,-1.2167 -3.901,-3.9009c-0.048,-1.0541 -0.058,-1.37 -0.058,-4.0408c0,-2.67 0.011,-2.9858 0.058,-4.0408c0.125,-2.6892 1.189,-3.77837 3.901,-3.9017c1.05501,-0.0475 1.371,-0.0575 4.041,-0.0575zm0,-2c-2.716,0 -3.056,0.01167 -4.12199,0.06c-3.63199,0.16667 -5.65001,2.18167 -5.817,5.8167c-0.04901,1.0675 -0.06099,1.4075 -0.06099,4.1233c0,2.7158 0.01198,3.0567 0.06,4.1233c0.16702,3.6317 2.18202,5.65 5.817,5.8167c1.067,0.0483 1.40701,0.06 4.123,0.06c2.71599,0 3.05702,-0.0117 4.123,-0.06c3.629,-0.1667 5.65198,-2.1817 5.81598,-5.8167c0.04901,-1.0666 0.061,-1.4075 0.061,-4.1233c0,-2.7158 -0.01199,-3.0558 -0.06,-4.1225c-0.16301,-3.62833 -2.181,-5.65 -5.81601,-5.81667c-1.06699,-0.04916 -1.40799,-0.06083 -4.12399,-0.06083zm0,4.865c-2.836,0 -5.13499,2.2992 -5.13499,5.135c0,2.8358 2.29901,5.1358 5.13499,5.1358c2.836,0 5.13499,-2.2991 5.13499,-5.1358c0,-2.8358 -2.29901,-5.135 -5.13499,-5.135zm0,8.4683c-1.841,0 -3.33299,-1.4916 -3.33299,-3.3333c0,-1.8408 1.49199,-3.3333 3.33299,-3.3333c1.841,0 3.33299,1.4925 3.33299,3.3333c0,1.8417 -1.49199,3.3333 -3.33299,3.3333zm5.338,-9.8708c-0.66299,0 -1.201,0.5375 -1.201,1.2c0,0.6625 0.53801,1.2 1.201,1.2c0.66301,0 1.19901,-0.5375 1.19901,-1.2c0,-0.6625 -0.536,-1.2 -1.19901,-1.2z" fill="url(#svg_9)"/>
   <path id="svg_20" d="m148,8c2.67,0 2.987,0.01 4.04201,0.05833c2.70999,0.12334 3.77699,1.21167 3.90099,3.90167c0.048,1.0542 0.05702,1.3708 0.05702,4.0408c0,2.6709 -0.00998,2.9867 -0.05702,4.0409c-0.125,2.6875 -1.189,3.7766 -3.90099,3.9c-1.05501,0.0483 -1.37001,0.0583 -4.04201,0.0583c-2.67,0 -2.987,-0.01 -4.041,-0.0583c-2.717,-0.1242 -3.77699,-1.2167 -3.901,-3.9009c-0.048,-1.0541 -0.058,-1.37 -0.058,-4.0408c0,-2.67 0.011,-2.9858 0.058,-4.0408c0.125,-2.6892 1.189,-3.77837 3.901,-3.9017c1.05501,-0.0475 1.371,-0.0575 4.041,-0.0575zm0,-2c-2.716,0 -3.056,0.01167 -4.12199,0.06c-3.63199,0.16667 -5.65001,2.18167 -5.817,5.8167c-0.04901,1.0675 -0.06099,1.4075 -0.06099,4.1233c0,2.7158 0.01198,3.0567 0.06,4.1233c0.16702,3.6317 2.18202,5.65 5.817,5.8167c1.067,0.0483 1.40701,0.06 4.123,0.06c2.71599,0 3.05702,-0.0117 4.123,-0.06c3.629,-0.1667 5.65198,-2.1817 5.81598,-5.8167c0.04901,-1.0666 0.061,-1.4075 0.061,-4.1233c0,-2.7158 -0.01199,-3.0558 -0.06,-4.1225c-0.16301,-3.62833 -2.181,-5.65 -5.81601,-5.81667c-1.06699,-0.04916 -1.40799,-0.06083 -4.12399,-0.06083zm0,4.865c-2.836,0 -5.13499,2.2992 -5.13499,5.135c0,2.8358 2.29901,5.1358 5.13499,5.1358c2.836,0 5.13499,-2.2991 5.13499,-5.1358c0,-2.8358 -2.29901,-5.135 -5.13499,-5.135zm0,8.4683c-1.841,0 -3.33299,-1.4916 -3.33299,-3.3333c0,-1.8408 1.49199,-3.3333 3.33299,-3.3333c1.841,0 3.33299,1.4925 3.33299,3.3333c0,1.8417 -1.49199,3.3333 -3.33299,3.3333zm5.338,-9.8708c-0.66299,0 -1.201,0.5375 -1.201,1.2c0,0.6625 0.53801,1.2 1.201,1.2c0.66301,0 1.19901,-0.5375 1.19901,-1.2c0,-0.6625 -0.536,-1.2 -1.19901,-1.2z" fill="url(#svg_8)"/>
   <defs>
    <linearGradient id="svg_9" x1="0" y1="0" x2="1" y2="1">
     <stop stop-color="#3756E3"/>
     <stop offset="1" stop-color="#EA2E80"/>
    </linearGradient>
    <linearGradient id="svg_8" x1="0.45" y1="0.5" x2="0.1" y2="0.975">
     <stop stop-color="#FFACB7" stop-opacity="0"/>
     <stop offset="1" stop-color="#FFC751"/>
    </linearGradient>
   </defs>
  </symbol>
 </defs>
</svg>